<?xml version="1.0" encoding="utf-8"?>
<!-- Generator: Adobe Illustrator 27.3.1, SVG Export Plug-In . SVG Version: 6.00 Build 0)  -->
<svg version="1.1" id="Layer_2_00000103949962907120022480000003826869318632472204_"
	 xmlns="http://www.w3.org/2000/svg" xmlns:xlink="http://www.w3.org/1999/xlink" x="0px" y="0px" viewBox="0 0 792.6 177"
	 style="enable-background:new 0 0 792.6 177;" xml:space="preserve">
<style type="text/css">
	.st0{enable-background:new    ;}
</style>
<g id="Layer_1-2">
	<g>
		<g class="st0">
			<path d="M3.1,19C1,17,0,14.5,0,11.5C0,8.5,1,6,3.1,4c2.1-2.1,4.6-3.1,7.5-3.1c3,0,5.5,1,7.6,3.1s3.1,4.6,3.1,7.6
				c0,2.9-1,5.4-3.1,7.5c-2.1,2.1-4.6,3.1-7.6,3.1C7.7,22.2,5.2,21.1,3.1,19z M2.1,39.4h17v101.6h-17V39.4z"/>
			<path d="M44.9,0h20.3l48.8,118.8h0.6L163.5,0h20.3v140.9h-16.4V32h-8l19-28.1l-56.6,137h-14.8L50.3,3.9l19,28.1h-8v108.9H44.9V0z
				"/>
			<path d="M225.2,136.4c-7-4.3-12.4-10.4-16.1-18.2c-3.7-7.8-5.6-17.1-5.6-27.7v-0.1c0-10.5,1.9-19.7,5.7-27.7
				c3.8-8,9.1-14.2,15.9-18.7c6.8-4.5,14.9-6.7,24.1-6.7c9.2,0,17.2,2.1,23.9,6.4c6.7,4.3,11.8,10.2,15.4,17.9
				c3.6,7.7,5.4,16.6,5.4,26.8v6.2H212V81.4h73.4l-8.6,12.3v-6.5c0-7.9-1.2-14.4-3.6-19.5c-2.4-5.1-5.6-9-9.8-11.5
				c-4.2-2.5-9-3.8-14.4-3.8c-5.4,0-10.3,1.3-14.6,4s-7.7,6.5-10.2,11.7c-2.5,5.2-3.7,11.5-3.7,19.1v6.5c0,7.2,1.2,13.3,3.7,18.4
				s5.9,9,10.4,11.7c4.5,2.7,9.8,4.1,15.9,4.1c4.3,0,8.1-0.7,11.5-2c3.4-1.3,6.2-3.1,8.5-5.4c2.3-2.3,3.9-4.9,4.9-7.8l0.3-0.9h16.7
				l-0.2,1c-0.8,4.2-2.5,8.1-4.8,11.7c-2.4,3.6-5.4,6.9-9.1,9.6c-3.7,2.8-7.9,4.9-12.7,6.4c-4.8,1.5-9.9,2.3-15.4,2.3
				C240.6,142.9,232.2,140.7,225.2,136.4z"/>
			<path d="M326.4,139.1c-5.8-2.5-10.4-6.1-13.7-10.6c-3.4-4.6-5.4-9.9-6.1-15.9l-0.1-0.9h17l0.2,1c1,5.1,3.5,9,7.3,11.9
				c3.8,2.8,9.2,4.2,16.1,4.2c4.6,0,8.6-0.6,11.8-1.8c3.3-1.2,5.8-2.9,7.5-5.2s2.6-4.9,2.6-8v-0.1c0-3.6-1.1-6.6-3.3-8.8
				c-2.2-2.2-6.2-4-12-5.5l-16.1-3.9c-6.4-1.6-11.7-3.6-15.9-6.1c-4.2-2.5-7.3-5.6-9.4-9.2c-2.1-3.6-3.1-7.9-3.1-12.8v-0.1
				c0-5.9,1.6-11,4.7-15.5c3.2-4.5,7.6-8,13.2-10.5c5.6-2.5,12.1-3.8,19.4-3.8c7.4,0,13.9,1.3,19.4,4c5.5,2.6,9.8,6.2,13,10.7
				c3.2,4.5,4.9,9.6,5.3,15.3l0.1,1.3h-16.2L368,68c-0.7-4.9-2.8-8.9-6.5-11.9c-3.7-3-8.7-4.5-15-4.5c-4.1,0-7.7,0.6-10.6,1.9
				c-3,1.2-5.3,3-6.9,5.2c-1.6,2.2-2.4,4.9-2.4,7.9v0.1c0,2.3,0.5,4.3,1.6,6.2s2.8,3.5,5.1,4.8s5.4,2.5,9.1,3.4l16.1,3.9
				c10.3,2.5,17.5,5.9,21.7,10.2c4.2,4.3,6.2,10.1,6.2,17.3v0.1c0,5.9-1.7,11.2-5.1,15.7c-3.4,4.6-8.1,8.1-14.1,10.7
				s-12.7,3.9-20.3,3.9C339,142.9,332.2,141.6,326.4,139.1z"/>
			<path d="M419.4,139.1c-5.8-2.5-10.4-6.1-13.7-10.6c-3.4-4.6-5.4-9.9-6.1-15.9l-0.1-0.9h17l0.2,1c1,5.1,3.5,9,7.3,11.9
				c3.8,2.8,9.2,4.2,16.1,4.2c4.6,0,8.6-0.6,11.8-1.8c3.3-1.2,5.8-2.9,7.5-5.2s2.6-4.9,2.6-8v-0.1c0-3.6-1.1-6.6-3.3-8.8
				c-2.2-2.2-6.2-4-12-5.5l-16.1-3.9c-6.4-1.6-11.7-3.6-15.9-6.1c-4.2-2.5-7.3-5.6-9.4-9.2c-2.1-3.6-3.1-7.9-3.1-12.8v-0.1
				c0-5.9,1.6-11,4.7-15.5c3.2-4.5,7.6-8,13.2-10.5c5.6-2.5,12.1-3.8,19.4-3.8c7.4,0,13.9,1.3,19.4,4c5.5,2.6,9.8,6.2,13,10.7
				c3.2,4.5,4.9,9.6,5.3,15.3l0.1,1.3h-16.2L461,68c-0.7-4.9-2.8-8.9-6.5-11.9c-3.7-3-8.7-4.5-15-4.5c-4.1,0-7.7,0.6-10.6,1.9
				c-3,1.2-5.3,3-6.9,5.2c-1.6,2.2-2.4,4.9-2.4,7.9v0.1c0,2.3,0.5,4.3,1.6,6.2s2.8,3.5,5.1,4.8s5.4,2.5,9.1,3.4l16.1,3.9
				c10.3,2.5,17.5,5.9,21.7,10.2c4.2,4.3,6.2,10.1,6.2,17.3v0.1c0,5.9-1.7,11.2-5.1,15.7c-3.4,4.6-8.1,8.1-14.1,10.7
				s-12.7,3.9-20.3,3.9C432.1,142.9,425.2,141.6,419.4,139.1z"/>
			<path d="M509.1,139.1c-5.1-2.5-9-6.1-11.9-10.7c-2.8-4.6-4.2-10-4.2-16.1V112c0-5.8,1.4-10.8,4.3-15c2.9-4.2,7.1-7.6,12.6-10.1
				c5.5-2.5,12.1-3.9,19.9-4.4l37.6-2.1v13.2l-35.6,2.1c-6.8,0.4-12,2-15.8,4.9c-3.7,2.9-5.6,6.7-5.6,11.4v0.2
				c0,4.9,1.8,8.8,5.5,11.6c3.7,2.9,8.6,4.3,14.7,4.3c5.3,0,10.1-1.1,14.4-3.4c4.3-2.2,7.6-5.3,10.2-9.2c2.5-3.9,3.8-8.3,3.8-13.2
				v-30c0-6.2-1.9-11.1-5.8-14.6c-3.9-3.5-9.4-5.3-16.5-5.3c-6.5,0-11.8,1.4-15.8,4.2s-6.5,6.5-7.5,11.1l-0.2,0.9h-16.4l0.1-1.1
				c0.5-5.6,2.4-10.7,5.7-15.2c3.3-4.6,7.8-8.2,13.6-10.9c5.8-2.7,12.7-4.1,20.6-4.1c8,0,14.9,1.4,20.8,4.1
				c5.8,2.7,10.3,6.6,13.5,11.6c3.2,5,4.8,10.9,4.8,17.6v70.2h-17v-16.5h-0.4c-2,3.7-4.6,7-7.8,9.7c-3.3,2.8-6.9,4.9-11,6.4
				c-4.1,1.5-8.4,2.3-12.9,2.3C520.1,142.9,514.2,141.6,509.1,139.1z"/>
			<path d="M618.6,173.5c-6.2-2.4-11.2-5.6-15-9.7c-3.8-4.1-6.3-8.6-7.4-13.6l-0.2-0.9h17.1l0.4,0.9c1.6,3.6,4.8,6.5,9.4,8.6
				c4.7,2.1,10.4,3.2,17.3,3.2c8.9,0,15.8-2.3,20.7-6.9s7.3-10.8,7.3-18.7v-13h-0.4c-2,3.8-4.6,7-7.8,9.8c-3.2,2.7-6.9,4.9-11,6.4
				c-4.1,1.5-8.6,2.3-13.5,2.3c-8.5,0-16-2.2-22.5-6.5c-6.5-4.3-11.5-10.4-15.1-18.3c-3.6-7.8-5.4-17-5.4-27.6v-0.1
				c0-10.5,1.8-19.7,5.5-27.5c3.7-7.8,8.8-13.8,15.3-18.1c6.5-4.3,14.1-6.4,22.7-6.4c4.8,0,9.2,0.8,13.3,2.4c4,1.6,7.6,3.9,10.8,6.7
				c3.2,2.9,5.8,6.2,7.9,10h0.4V39.4h17v98.7c0,7.9-1.8,14.7-5.5,20.6c-3.6,5.8-8.8,10.4-15.5,13.6c-6.7,3.2-14.6,4.8-23.8,4.8
				C632.1,177.1,624.8,175.9,618.6,173.5z M654.4,122.2c4.3-3.1,7.7-7.4,10.2-13c2.4-5.6,3.7-12.1,3.7-19.6v-0.1
				c0-7.5-1.2-14-3.7-19.5c-2.4-5.5-5.8-9.8-10.2-12.9c-4.4-3.1-9.4-4.6-15.1-4.6c-6,0-11.2,1.5-15.6,4.5c-4.4,3-7.8,7.3-10.2,12.8
				c-2.4,5.5-3.6,12.1-3.6,19.6v0.1c0,7.7,1.2,14.3,3.6,19.9c2.4,5.6,5.8,9.9,10.2,12.9c4.4,3,9.6,4.5,15.6,4.5
				C645.1,126.9,650.1,125.3,654.4,122.2z"/>
			<path d="M724,136.4c-7-4.3-12.4-10.4-16.1-18.2c-3.7-7.8-5.6-17.1-5.6-27.7v-0.1c0-10.5,1.9-19.7,5.7-27.7
				c3.8-8,9.1-14.2,15.9-18.7c6.8-4.5,14.9-6.7,24.1-6.7c9.2,0,17.2,2.1,23.9,6.4c6.7,4.3,11.8,10.2,15.4,17.9
				c3.6,7.7,5.4,16.6,5.4,26.8v6.2h-81.8V81.4h73.4l-8.6,12.3v-6.5c0-7.9-1.2-14.4-3.6-19.5c-2.4-5.1-5.6-9-9.8-11.5
				c-4.2-2.5-9-3.8-14.4-3.8c-5.4,0-10.3,1.3-14.6,4s-7.7,6.5-10.2,11.7c-2.5,5.2-3.7,11.5-3.7,19.1v6.5c0,7.2,1.2,13.3,3.7,18.4
				s5.9,9,10.4,11.7c4.5,2.7,9.8,4.1,15.9,4.1c4.3,0,8.1-0.7,11.5-2c3.4-1.3,6.2-3.1,8.5-5.4c2.3-2.3,3.9-4.9,4.9-7.8l0.3-0.9h16.7
				l-0.2,1c-0.8,4.2-2.5,8.1-4.8,11.7c-2.4,3.6-5.4,6.9-9.1,9.6c-3.7,2.8-7.9,4.9-12.7,6.4c-4.8,1.5-9.9,2.3-15.4,2.3
				C739.3,142.9,731,140.7,724,136.4z"/>
		</g>
	</g>
</g>
</svg>
